<svg width="32" height="32" viewBox="0 0 32 32" fill="none" xmlns="http://www.w3.org/2000/svg">
<path d="M19.814 1.699V1.564C19.814 1.28738 19.7041 1.02208 19.5085 0.826484C19.3129 0.630883 19.0476 0.520996 18.771 0.520996H12.514C12.2374 0.520996 11.9721 0.630883 11.7765 0.826484C11.5809 1.02208 11.471 1.28738 11.471 1.564V1.7C8.74335 2.58133 6.36538 4.30481 4.67889 6.62269C2.99241 8.94057 2.08426 11.7335 2.085 14.6H29.2C29.201 11.7333 28.2929 8.94018 26.6064 6.62209C24.9199 4.30401 22.5418 2.58038 19.814 1.699Z" fill="#EF4637"/>
<path d="M29.721 14.6H1.564C1.28738 14.6 1.02209 14.7099 0.826488 14.9055C0.630887 15.1011 0.521 15.3664 0.521 15.643V16.686C0.521 16.9626 0.630887 17.2279 0.826488 17.4235C1.02209 17.6191 1.28738 17.729 1.564 17.729H29.721C29.9976 17.729 30.2629 17.6191 30.4585 17.4235C30.6541 17.2279 30.764 16.9626 30.764 16.686V15.643C30.764 15.3664 30.6541 15.1011 30.4585 14.9055C30.2629 14.7099 29.9976 14.6 29.721 14.6Z" fill="#EF4637"/>
<path d="M28.158 23.465C28.158 22.912 27.9384 22.3815 27.5474 21.9904C27.1564 21.5992 26.6261 21.3793 26.073 21.379H5.215C4.66176 21.379 4.13117 21.5988 3.73997 21.99C3.34877 22.3812 3.129 22.9118 3.129 23.465V27.637C3.129 28.0479 3.20993 28.4548 3.36718 28.8344C3.52443 29.2141 3.75491 29.559 4.04546 29.8496C4.33602 30.1401 4.68096 30.3706 5.06058 30.5279C5.44021 30.6851 5.8471 30.766 6.258 30.766H9.387C10.4708 30.7667 11.5362 30.4856 12.4787 29.9504C13.4212 29.4152 14.2083 28.6442 14.763 27.713C14.8551 27.562 14.9846 27.4372 15.1388 27.3506C15.2931 27.264 15.4671 27.2185 15.644 27.2185C15.8209 27.2185 15.9949 27.264 16.1492 27.3506C16.3034 27.4372 16.4329 27.562 16.525 27.713C17.0797 28.6442 17.8668 29.4152 18.8093 29.9504C19.7518 30.4856 20.8172 30.7667 21.901 30.766H25.029C25.4399 30.766 25.8468 30.6851 26.2264 30.5279C26.606 30.3706 26.951 30.1401 27.2415 29.8496C27.5321 29.559 27.7626 29.2141 27.9198 28.8344C28.0771 28.4548 28.158 28.0479 28.158 27.637V23.465ZM6.258 23.465C5.98138 23.465 5.71609 23.5749 5.52049 23.7705C5.32489 23.9661 5.215 24.2314 5.215 24.508C5.215 24.2314 5.32489 23.9661 5.52049 23.7705C5.71609 23.5749 5.98138 23.465 6.258 23.465Z" fill="white"/>
<path d="M28.158 25.0291H30.765V27.636H28.158V25.0291Z" fill="#A7A9AC"/>
<path d="M28.158 23.465H30.765V25.029H28.158V23.465Z" fill="#A7A9AC"/>
<path d="M0.521 25.551V28.158H3.128V25.551H0.521Z" fill="#A7A9AC"/>
<path d="M0.521 23.986H3.128V25.55H0.521V23.986Z" fill="#A7A9AC"/>
<path d="M29.722 14.079H29.7C29.6034 11.2548 28.6552 8.52586 26.9798 6.25029C25.3044 3.97471 22.9801 2.25888 20.312 1.328C20.2557 0.959414 20.0697 0.623052 19.7873 0.379556C19.5049 0.136061 19.1449 0.00145272 18.772 0L12.515 0C12.1421 0.00145272 11.7821 0.136061 11.4997 0.379556C11.2173 0.623052 11.0313 0.959414 10.975 1.328C8.30654 2.25855 5.98182 3.97424 4.30603 6.24985C2.63025 8.52545 1.68173 11.2546 1.585 14.079H1.564C1.1492 14.079 0.751392 14.2438 0.458085 14.5371C0.164778 14.8304 0 15.2282 0 15.643L0 16.686C0 17.1008 0.164778 17.4986 0.458085 17.7919C0.751392 18.0852 1.1492 18.25 1.564 18.25H29.722C30.1368 18.25 30.5346 18.0852 30.8279 17.7919C31.1212 17.4986 31.286 17.1008 31.286 16.686V15.643C31.286 15.2282 31.1212 14.8304 30.8279 14.5371C30.5346 14.2438 30.1368 14.079 29.722 14.079ZM10.95 2.446V11.472C10.95 11.6103 11.0049 11.743 11.1027 11.8408C11.2005 11.9386 11.3332 11.9935 11.4715 11.9935C11.6098 11.9935 11.7425 11.9386 11.8403 11.8408C11.9381 11.743 11.993 11.6103 11.993 11.472V1.564C11.993 1.49558 12.0065 1.42783 12.0327 1.36462C12.0588 1.30141 12.0972 1.24398 12.1456 1.1956C12.194 1.14722 12.2514 1.10884 12.3146 1.08266C12.3778 1.05648 12.4456 1.043 12.514 1.043H15.121V12.515C15.121 12.6533 15.1759 12.786 15.2737 12.8838C15.3715 12.9816 15.5042 13.0365 15.6425 13.0365C15.7808 13.0365 15.9135 12.9816 16.0113 12.8838C16.1091 12.786 16.164 12.6533 16.164 12.515V1.043H18.771C18.8394 1.043 18.9072 1.05648 18.9704 1.08266C19.0336 1.10884 19.091 1.14722 19.1394 1.1956C19.1878 1.24398 19.2262 1.30141 19.2523 1.36462C19.2785 1.42783 19.292 1.49558 19.292 1.564V11.471C19.292 11.6093 19.3469 11.742 19.4447 11.8398C19.5425 11.9376 19.6752 11.9925 19.8135 11.9925C19.9518 11.9925 20.0845 11.9376 20.1823 11.8398C20.2801 11.742 20.335 11.6093 20.335 11.471V2.446C22.7095 3.35606 24.7643 4.94388 26.2439 7.01211C27.7234 9.08034 28.5626 11.5378 28.657 14.079H2.628C2.72242 11.5378 3.56156 9.08034 5.04113 7.01211C6.5207 4.94388 8.57545 3.35606 10.95 2.446ZM30.243 16.686C30.243 16.8242 30.1881 16.9567 30.0904 17.0544C29.9927 17.1521 29.8602 17.207 29.722 17.207H1.564C1.42582 17.207 1.2933 17.1521 1.1956 17.0544C1.09789 16.9567 1.043 16.8242 1.043 16.686V15.643C1.043 15.5048 1.09789 15.3723 1.1956 15.2746C1.2933 15.1769 1.42582 15.122 1.564 15.122H29.722C29.8602 15.122 29.9927 15.1769 30.0904 15.2746C30.1881 15.3723 30.243 15.5048 30.243 15.643V16.686Z" fill="#231F20"/>
<path d="M13.036 22.944H6.257C5.84221 22.944 5.44439 23.1088 5.15108 23.4021C4.85778 23.6954 4.693 24.0932 4.693 24.508V26.594C4.693 26.7323 4.74794 26.8649 4.84574 26.9627C4.94354 27.0605 5.07619 27.1155 5.2145 27.1155C5.35281 27.1155 5.48546 27.0605 5.58326 26.9627C5.68106 26.8649 5.736 26.7323 5.736 26.594V24.508C5.736 24.3698 5.79089 24.2373 5.8886 24.1396C5.9863 24.0419 6.11883 23.987 6.257 23.987H13.036C13.1743 23.987 13.307 23.932 13.4048 23.8342C13.5026 23.7364 13.5575 23.6038 13.5575 23.4655C13.5575 23.3272 13.5026 23.1945 13.4048 23.0967C13.307 22.9989 13.1743 22.944 13.036 22.944Z" fill="#231F20"/>
<path d="M30.765 22.944H28.627C28.506 22.3555 28.1858 21.8266 27.7204 21.4467C27.255 21.0667 26.6728 20.8588 26.072 20.858H5.214C4.52282 20.8588 3.86018 21.1337 3.37145 21.6224C2.88271 22.1111 2.60779 22.7738 2.607 23.465H0.521C0.382822 23.465 0.250304 23.5198 0.152597 23.6176C0.0548909 23.7153 0 23.8478 0 23.986L0 28.158C0 28.2961 0.0548909 28.4287 0.152597 28.5264C0.250304 28.6241 0.382822 28.679 0.521 28.679H2.764C2.98913 29.4312 3.45049 30.0909 4.07978 30.5604C4.70908 31.0299 5.47284 31.2844 6.258 31.286H9.386C10.559 31.2826 11.7114 30.9765 12.7315 30.3973C13.7516 29.8181 14.6049 28.9855 15.209 27.98C15.255 27.9064 15.319 27.8458 15.3949 27.8037C15.4709 27.7617 15.5562 27.7396 15.643 27.7396C15.7298 27.7396 15.8151 27.7617 15.8911 27.8037C15.967 27.8458 16.031 27.9064 16.077 27.98C16.6811 28.9855 17.5344 29.8181 18.5545 30.3973C19.5746 30.9765 20.727 31.2826 21.9 31.286H25.029C25.906 31.2849 26.7532 30.968 27.4158 30.3935C28.0783 29.8189 28.5118 29.025 28.637 28.157H30.764C30.9022 28.157 31.0347 28.1021 31.1324 28.0044C31.2301 27.9067 31.285 27.7742 31.285 27.636V23.464C31.2847 23.3261 31.2299 23.194 31.1324 23.0966C31.0349 22.9991 30.9028 22.9442 30.765 22.944ZM30.244 24.508H28.679V23.987H30.243L30.244 24.508ZM2.607 24.508V25.029H1.043V24.508H2.607ZM1.043 27.637V26.073H2.607V27.637H1.043ZM25.029 30.244H21.9C20.9069 30.241 19.9314 29.9817 19.0679 29.4911C18.2044 29.0006 17.4821 28.2955 16.971 27.444C16.8326 27.2152 16.6375 27.0261 16.4046 26.8948C16.1717 26.7635 15.9089 26.6945 15.6415 26.6945C15.3741 26.6945 15.1113 26.7635 14.8784 26.8948C14.6455 27.0261 14.4504 27.2152 14.312 27.444C13.8011 28.2952 13.0791 29.0001 12.216 29.4907C11.3529 29.9812 10.3778 30.2406 9.385 30.244H6.257C5.56582 30.2432 4.90318 29.9683 4.41445 29.4795C3.92571 28.9908 3.65079 28.3281 3.65 27.637V23.465C3.65 23.0502 3.81478 22.6524 4.10809 22.3591C4.40139 22.0658 4.7992 21.901 5.214 21.901H26.072C26.4868 21.901 26.8846 22.0658 27.1779 22.3591C27.4712 22.6524 27.636 23.0502 27.636 23.465V27.637C27.6352 28.3281 27.3603 28.9908 26.8715 29.4795C26.3828 29.9683 25.7202 30.2432 25.029 30.244ZM28.679 27.115V25.551H30.243V27.115H28.679Z" fill="#231F20"/>
<path d="M16.164 22.944H15.121C14.9827 22.944 14.85 22.9989 14.7522 23.0967C14.6544 23.1945 14.5995 23.3272 14.5995 23.4655C14.5995 23.6038 14.6544 23.7364 14.7522 23.8342C14.85 23.932 14.9827 23.987 15.121 23.987H16.164C16.3023 23.987 16.435 23.932 16.5328 23.8342C16.6306 23.7364 16.6855 23.6038 16.6855 23.4655C16.6855 23.3272 16.6306 23.1945 16.5328 23.0967C16.435 22.9989 16.3023 22.944 16.164 22.944Z" fill="#231F20"/>
</svg>
